<svg xmlns="http://www.w3.org/2000/svg" xmlns:xlink="http://www.w3.org/1999/xlink" width="156" height="28" viewBox="0 0 156 28">
    <defs>
        <path id="a" d="M0 .213h113.803v24.741H0z"/>
    </defs>
    <g fill="none" fill-rule="evenodd">
        <path fill="#6179BB" d="M26.348 3c1.582 2.231 2.603 6.458 2.61 10.408 1.34 1.526 2.02 3.323 1.716 5.288l.062.01c.17-1.051.264-2.138.264-3.23 0-4.947-1.59-9.24-3.714-11.767A4.082 4.082 0 0 0 26.348 3m-.806 24.925h-.001m-.007.002h-.002.002M25.5 27.936h-.002.002m-.007.001l-.003.001h.003m-.008.001l-.003.001h.003M25.467 27.943h-.002.002m-.008.002h-.002.002m-.016.003h-.002.002m-.009.002h-.002.002m-.009.002h-.003.003m-.008.002h-.002.002m-.008.001h-.002.002m-.025.005l-.004.001h.004m-.008.001h-.003.003m-.016.003h-.003.003m-.01.002h-.003.003m-.016.002l-.003.001h.003m-.007 0l-.004.002.004-.001m-.008.001h-.003.003m-.01.002h-.004.003m-.007.001a.05.05 0 0 0-.004 0h.004m-.008.001h-.004.004m-.008.002h-.003.003m-.008 0l-.003.001h.003m-.01 0l-.004.001h.004m-.008 0l-.003.001h.003m-.008.001h-.003.003m-.007.001h-.004.004M25.226 27.986h-.004.003m-.007.001h-.004.004m-.008 0l-.004.001h.004m-.008 0l-.003.001h.003m-.01.001h-.001m-.007 0l-.003.001h.003m-.008 0h-.003.003m-.008.001h-.002.002m-.008 0l-.003.001h.003m-.01 0h-.001m-.007.001h-.002.002M25.059 28h-.001.001m-.008 0h-.002.002m-.025 0h-.001m-.007 0h-.002.002M25.01 28h-.002.002m-.008 0H25h.002"/>
        <path fill="#E03757" d="M9.24 0c-2.196.674-2.272 5.018.529 8.856 1.05-.504 2.2-.907 3.45-1.18a17.544 17.544 0 0 1 3.733-.39c.663 0 1.327.034 1.985.102l.121-.181a15.84 15.84 0 0 1 1.4-1.813c.44-.484.866-.935 1.282-1.346C22.912 2.89 24 2.058 25.023 1.75c.284-.085.564-.13.84-.13.43 0 .852.11 1.263.348-.2-.305-.41-.573-.628-.798a8.04 8.04 0 0 1 1.499 1.51l.003.003C26.818 1.16 25.457.277 24.13.277c-3.08 0-5.105 3.674-8.003 3.674C13.647 3.951 12.653 0 9.24 0M1 13.948v.026-.026m0 .03v0m0 .03v.024-.023m0 .029v.023-.023m0 .03v.023-.022m0 .027v0m0 .036v.003-.003m.76 8.593c.451 1.892 1.148 3.206 2.197 3.272-1.049-.066-1.745-1.38-2.198-3.272m2.198 3.272h.007-.007m.008 0l.006.001h-.006m.008 0h.006-.006m.008 0h.005-.005m.007.001a.06.06 0 0 0 .005 0h-.005m.008 0H4h-.005m.007 0h.005-.005m.008 0h.004-.004m.007 0h.005-.005m.008 0L4.03 26h-.005m.007 0H4.051 4.033"/>
        <path fill="#C0D84A" d="M16.052 8c-1.238 0-2.473.124-3.665.386-1.228.27-2.357.668-3.387 1.165l.001.002c1.244 1.713 3.066 3.323 5.536 4.447 1.325-2.24 2.37-4.244 3.463-5.899A18.958 18.958 0 0 0 16.052 8"/>
        <path fill="#59BA70" d="M28.448 13c.001.862-.043 1.71-.137 2.52l-.001.008-.001.01a16.58 16.58 0 0 1-.176 1.157 17.577 17.577 0 0 1-.913 3.229 13.576 13.576 0 0 1-.795 1.669c.978 2.519.33 4.787-.84 5.3l-.008.003a1.71 1.71 0 0 1-.418.097h.005l.003-.001h.007l.006-.002H25.189l.004-.001h.007a.218.218 0 0 0 .01-.002h.005a.03.03 0 0 1 .004-.001h.003l.004-.001h.003l.003-.001h.004l.003-.001h.004l.003-.001.006-.001h.003l.004-.001h.002l.004-.001h.003l.004-.001.003-.001h.004l.003-.001a.09.09 0 0 0 .006-.001h.003l.004-.001.002-.001h.004l.003-.001a.04.04 0 0 0 .004-.001h.003l.004-.002h.003l.006-.001h.002l.005-.002h.003l.003-.001h.003l.004-.001.003-.001.006-.001.007-.002h.003a.06.06 0 0 0 .007-.002l.004-.001h.002a.05.05 0 0 0 .005-.002h.002l.005-.001.003-.001.005-.001h.003l.004-.002h.003l.004-.002h.002l.006-.002h.001l.007-.002.007-.002h.002l.004-.001.003-.001.004-.001h.002l.006-.003h.001l.014-.004a.174.174 0 0 0 .007-.002h.001a.306.306 0 0 1 .006-.002h.001l.022-.007.007-.002.007-.002a.784.784 0 0 0 .022-.007l.007-.003c1.871-.63 3.794-4.394 4.442-8.825l-.053-.008c.264-1.886-.327-3.61-1.49-5.074m-3.29 13.993h-.008.008m-.012 0l-.003.001h.003m-.08.005h-.002.002m-.016 0h-.003.003m-.01 0h-.005.004m-.007 0l-.005.001h.005m-.008 0h-.006.005M25 27h.015H25"/>
        <path fill="#FBBB2F" d="M26.181 2c-.285 0-.574.046-.869.133-1.062.314-2.19 1.165-3.405 2.347-.432.42-.874.882-1.33 1.376A16.528 16.528 0 0 0 19 7.893c4.48.453 8.727 2.348 11 5.107-.007-4.04-.985-8.361-2.505-10.643A2.613 2.613 0 0 0 26.181 2"/>
        <path fill="#FBED1E" d="M19.003 8c-1.155 1.682-2.26 3.718-3.657 5.992.782.344 1.626.642 2.535.885 5.91 1.584 8.798 4.484 9.884 7.123a13.676 13.676 0 0 0 .879-1.746c.43-1.028.763-2.148 1.009-3.377a16.54 16.54 0 0 0 .195-1.22l.001-.009c.104-.847.153-1.735.151-2.637C27.727 10.304 23.482 8.445 19.003 8M11.15 20.046"/>
        <path fill="#D7258D" d="M9.475 0C6.585 0 1 5.984 1 13.948v.187c.007 2.414.138 5.129.524 7.351-.358-3.834 2.45-9.808 8.495-12.63C7.14 5.018 7.216.674 9.475 0M11 19.93c-1.09 1.045-2.183 2.853-3.474 4.225 1.29-1.372 2.384-3.18 3.474-4.225M4.357 25.99h-.002.002m-.009.001h-.003.003m-.01.001h-.003.003M4.312 25.995h-.003.003m-.01 0h-.004.005m-.01 0l-.005.001h.004m-.01 0h-.004.004m-.01 0l-.005.001h.005m-.025 0h-.005.005m-.01.001H4.23h.005m-.01 0h-.005.005m-.01 0L4.21 26h.006m-.01 0h-.007.006m-.01 0h-.01.01m-.014 0h-.007.007m-.01 0h-.007.006m-.01 0h-.007.006m-.01 0L4.142 26h.007m-.01 0h-.011.01"/>
        <path fill="#64C9DB" d="M1.03 21.524c.074.43.157.84.25 1.228.455 1.876 1.155 3.18 2.209 3.245l.044.002.05.001h.043l.044-.001.044-.002.055-.003.073-.006c1.169-.109 2.155-.851 3.046-1.81 1.267-1.368 2.335-3.162 3.4-4.198.168-.163.335-.306.502-.427 1.735-2.15 3.073-4.2 4.21-6.086-2.53-1.13-4.395-2.746-5.668-4.467C3.424 11.797.68 17.72 1.03 21.524z"/>
        <path fill="#EA94BE" d="M27.448 21c-.834 1.18-1.898 2.208-3.236 3.134l-.212.038c.254.58.529 1.083.868 1.414a.032.032 0 0 0 .004.004l.002.002.006.006c.243.233.519.377.842.4H25.752l.01.001h.03l.007.001H25.875l.002-.001h.023l.002-.001h.024l.008-.001h.001l.006-.001h.016l.003-.001h.01l.005-.001H25.984c.16-.013.322-.043.484-.09l.01-.003c1.353-.474 2.101-2.572.97-4.901"/>
        <path fill="#AF85BC" d="M15.148 14c-1.121 1.808-2.44 3.777-4.148 5.838a3.1 3.1 0 0 1 .144-.095c.288-.179.58-.286.876-.299h.027l.007-.001h.027c2.688 0 2.622 4.104 4.198 4.104 1.51 0 1.711-3.763 4.287-3.763H20.624l.007.001H20.646l.007.001H20.667l.01.001h.004l.005.001h.015l.006.002h.017a.336.336 0 0 1 .01.002h.003l.012.001h.002l.007.001h.002l.007.001h.002l.022.003h.001l.008.002c.533.073.954.397 1.304.87l.001.002.004.006.006.007.001.002.006.008v.001c.784 1.078 1.21 2.901 1.731 4.304l.194-.041c1.22-.992 2.191-2.096 2.953-3.363-1.036-2.503-3.792-5.254-9.433-6.756a16.937 16.937 0 0 1-2.42-.84"/>
        <path fill="#361943" d="M28.038 24.996c.134-1.025-.023-2.122-.44-3.199.836-1.453 1.43-3.109 1.807-5.022.19-.957.296-2 .329-3.076.51.749.85 1.531 1.018 2.335-.138 2.53-.751 5.107-1.73 7.214a11.85 11.85 0 0 1-.984 1.748m-3.319.272a13.554 13.554 0 0 0 2.515-2.878c.38 1.186.33 2.13.26 2.604-.054.371-.15.704-.278.99-.5.484-.996.75-1.445.75-.39 0-.741-.655-1.052-1.466m-3.996-6.008c-1.838 0-2.708 1.536-3.344 2.658-.352.62-.715 1.26-1.037 1.26-.32 0-.65-.692-.969-1.362-.579-1.215-1.37-2.873-3.256-2.91a54.945 54.945 0 0 0 3.174-4.687c.703.3 1.467.57 2.3.796 3.672.997 6.516 2.654 8.224 4.793.543.68.92 1.338 1.182 1.948a12.833 12.833 0 0 1-2.479 2.956 48.32 48.32 0 0 1-.29-.888c-.684-2.14-1.46-4.564-3.505-4.564M8.255 22.054c-1.303 1.735-2.78 3.702-4.571 3.702-.77 0-1.437-1.247-1.88-3.51a26.556 26.556 0 0 1-.332-2.296c.541-3.509 3.194-7.873 7.932-10.193.063.082.127.165.193.247 1.013 1.249 2.667 2.812 5.191 3.991a53.15 53.15 0 0 1-3.466 5.043c-1.107.407-2.064 1.68-3.067 3.016M4.203 4.955C5.279 3.42 6.409 2.393 7.365 1.82c-.218.525-.332 1.161-.323 1.885.022 1.793.75 3.79 2.017 5.587A15.424 15.424 0 0 0 3.542 13.9c-1.008 1.351-1.76 2.825-2.216 4.28a61.39 61.39 0 0 1-.108-3.73c0-4.552 1.87-7.902 2.985-9.494m11.707.225c1.633 0 2.972-.961 4.267-1.891 1.253-.9 2.437-1.75 3.827-1.75.499 0 1.01.148 1.517.428-1.79.145-3.662 1.911-5.424 3.813a16.506 16.506 0 0 0-1.475 1.876c-1.949-.18-3.895-.083-5.709.304-1.24.265-2.352.643-3.35 1.093-1.228-1.716-1.96-3.673-1.98-5.356-.013-1.002.232-1.805.678-2.303a2.2 2.2 0 0 1 .683-.128c1.619 0 2.606.979 3.651 2.015.942.934 1.916 1.9 3.315 1.9m6.768 3.264a20.632 20.632 0 0 0-3.434-.722c.4-.566.81-1.087 1.242-1.553 1.667-1.8 3.595-3.64 5.255-3.652.244-.001.48.038.711.113.258.226.512.484.759.772 1.154 2.137 1.89 5.509 1.987 8.776-1.547-1.61-3.814-2.916-6.52-3.734m-7.598 5.07c-2.474-1.141-4.086-2.661-5.07-3.874-.033-.04-.063-.08-.095-.12.957-.426 1.99-.772 3.107-1.01 1.69-.361 3.476-.454 5.24-.316-.618.947-1.227 1.992-1.882 3.116-.415.711-.843 1.447-1.3 2.204m1.762-1.913c.711-1.22 1.368-2.348 2.037-3.35 4.185.457 8.165 2.203 10.33 4.757-.004 1.28-.11 2.526-.333 3.653-.34 1.723-.846 3.205-1.548 4.514a9.27 9.27 0 0 0-1.097-1.727c-1.781-2.23-4.721-3.95-8.504-4.977a17.077 17.077 0 0 1-2.143-.735c.441-.733.856-1.445 1.258-2.135m13.933 2.805a7.923 7.923 0 0 0-1.03-1.612c-.016-2.448-.394-5.005-1.043-7.13 1.17 2.268 1.994 5.317 2.073 8.742m-1.21-9.74C28.02 1.876 25.992.274 24.005.274c-1.771 0-3.169 1.004-4.52 1.974-1.194.858-2.321 1.667-3.575 1.667-.912 0-1.636-.718-2.474-1.55C12.318 1.257 11.05 0 8.944 0 7.257 0 5.01 1.652 3.218 4.21 2.016 5.926 0 9.538 0 14.45c0 2.243.106 5.461.611 8.047.219 1.12.884 4.524 3.073 4.524 2.385 0 4.056-2.225 5.53-4.188.984-1.31 2.001-2.664 2.838-2.664 1.096 0 1.594.875 2.23 2.209.484 1.016.984 2.066 2.06 2.066 1.018 0 1.561-.958 2.086-1.884.697-1.228 1.233-2.034 2.295-2.034 1.167 0 1.768 1.88 2.349 3.697.621 1.942 1.208 3.777 2.7 3.777C28.914 28 32 21.536 32 14.95c0-3.794-.865-7.445-2.435-10.282"/>
        <g transform="translate(42 2)">
            <mask id="b" fill="#fff">
                <use xlink:href="#a"/>
            </mask>
            <path fill="#361A44" d="M83.032 8.44c0 .287-.056.561-.156.812v.002l-.03.069a3476.73 3476.73 0 0 0-3.88 11.365s-.996 4.575-6.591 4.25h-.002c-1.033 0-1.87-.856-1.87-1.911 0-.943.67-1.725 1.548-1.88l-.003-.005c1.144-.165 2.023-1.17 2.023-2.383 0-.214-.027-.42-.078-.618-.443-1.653-1.5-4.385-3.17-8.196a2.432 2.432 0 0 1-.32-1.207c0-1.33 1.055-2.407 2.356-2.407 1.04 0 1.92.689 2.233 1.644l.005-.002 1.975 6.114c.133-.523.737-2.593 1.814-6.21.012-.047.025-.093.04-.137l.002-.004V7.73h.001a2.114 2.114 0 0 1 1.992-1.448c1.166 0 2.11.966 2.11 2.157zm-24.238 2.732c.15-.368.49-.736 1.018-1.104.528-.36 1.11-.54 1.747-.54s1.22.18 1.747.54c.52.36.855.728 1.006 1.104h-5.518zm3.142-5.188h-.754c-1.902 0-3.524.664-4.865 1.99-1.324 1.32-1.986 2.907-1.986 4.765 0 1.849.662 3.433 1.986 4.751 1.341 1.327 2.963 1.99 4.865 1.99.134 0 .26-.004.377-.013.117.009.243.013.377.013 1.29 0 2.552-.004 3.784-.013a1.789 1.789 0 0 0 1.119-.41c.31-.249.506-.561.59-.938l.013-.025a1.67 1.67 0 0 0-.327-1.477c-.352-.462-.821-.689-1.408-.68H61.56a3.032 3.032 0 0 1-1.784-.566c-.529-.368-.868-.753-1.019-1.156h8.485a1.56 1.56 0 0 0 1.106-.436 1.4 1.4 0 0 0 .44-1.027v-.013c0-1.858-.666-3.446-1.998-4.764-1.333-1.327-2.95-1.99-4.853-1.99zm34.965 9.967c.233.347.37.766.37 1.219 0 1.19-.945 2.156-2.11 2.156a2.1 2.1 0 0 1-1.811-1.052l-3.259-4.697.006-.025h-.018l.012 3.424h-.053c-.008 1.322-1.059 2.392-2.355 2.392s-2.347-1.07-2.355-2.392V2.62c0-1.33 1.054-2.407 2.355-2.407S90.04 1.291 90.04 2.62l.021 5.78 3.611-3.787a1.85 1.85 0 0 1 1.426-.676c1.033 0 1.87.855 1.87 1.91 0 .472-.167.903-.445 1.236l-3.059 3.58 3.438 5.288zm11.573-.888c-.553.625-1.203.937-1.948.937-.746 0-1.396-.312-1.949-.937-.57-.65-.854-1.438-.854-2.363 0-.924.28-1.703.842-2.337.561-.633 1.215-.95 1.96-.95.746 0 1.396.308 1.95.924.56.651.841 1.439.841 2.363 0 .925-.28 1.712-.842 2.363zm3.318-7.268c-1.34-1.387-2.974-2.08-4.902-2.08h-.754c-1.92 0-3.553.693-4.903 2.08-1.332 1.361-1.998 2.996-1.998 4.905 0 1.927.67 3.575 2.011 4.944 1.34 1.37 2.97 2.055 4.89 2.055h.754c1.928 0 3.562-.694 4.902-2.08 1.341-1.353 2.011-2.992 2.011-4.919 0-1.909-.67-3.544-2.01-4.905zM18.553 2.49c.712.728 1.069 1.597 1.069 2.607v12.174l-.01.001c-.1 1.186-1.072 2.117-2.26 2.117-1.252 0-2.268-1.037-2.268-2.317V9.39l-2.162 7.638a3.076 3.076 0 0 1-1.131 1.695 3.131 3.131 0 0 1-1.961.667h-.05a3.13 3.13 0 0 1-1.961-.667 3.071 3.071 0 0 1-1.132-1.695l-2.15-7.634v7.679c0 1.28-1.015 2.317-2.268 2.317-1.17 0-2.131-.903-2.255-2.064A.117.117 0 0 1 0 17.272V5.098c0-1.01.356-1.879 1.069-2.607.703-.719 1.57-1.078 2.602-1.078h.062c.83 0 1.572.253 2.225.757a3.481 3.481 0 0 1 1.295 1.927l2.577 9.079 2.526-9.067a3.644 3.644 0 0 1 1.32-1.951c.637-.497 1.374-.745 2.213-.745h.062c1.031 0 1.898.36 2.602 1.078zM52.14 12.495v4.716c0 1.28-1.016 2.318-2.27 2.318-1.252 0-2.268-1.038-2.268-2.318v-4.716c0-1.273-1.01-2.305-2.256-2.305-1.246 0-2.256 1.032-2.257 2.305v4.744c0 1.28-1.015 2.318-2.268 2.318s-2.27-1.037-2.27-2.318V8.248c0-1.28 1.017-2.318 2.27-2.318.91 0 1.692.548 2.054 1.338C44.644 5.59 47.6 5.925 47.6 5.925c5.044.694 4.538 6.57 4.538 6.57zm-21.086 2.568c-.553.625-1.202.937-1.948.937s-1.395-.312-1.948-.937c-.57-.65-.855-1.438-.855-2.363 0-.924.28-1.703.842-2.337.562-.633 1.215-.95 1.96-.95.747 0 1.396.308 1.95.924.56.651.841 1.439.841 2.363 0 .925-.28 1.712-.842 2.363zM29.47 5.715h-.755c-1.919 0-3.553.693-4.902 2.08-1.332 1.361-1.999 2.996-1.999 4.905 0 1.927.67 3.575 2.011 4.944 1.341 1.37 2.971 2.055 4.89 2.055h.755c1.927 0 3.561-.694 4.902-2.08 1.34-1.353 2.011-2.992 2.011-4.919 0-1.909-.67-3.544-2.011-4.905-1.341-1.387-2.975-2.08-4.902-2.08z" mask="url(#b)"/>
        </g>
    </g>
</svg>
