<svg xmlns="http://www.w3.org/2000/svg" xmlns:xlink="http://www.w3.org/1999/xlink" width="142" height="25" viewBox="0 0 142 25">
    <defs>
        <path id="a" d="M0 .183h99.899V21.37H0z"/>
    </defs>
    <g fill="none" fill-rule="evenodd">
        <g transform="translate(42 2)">
            <mask id="b" fill="#fff">
                <use xlink:href="#a"/>
            </mask>
            <path fill="#FFF" d="M72.887 7.228c0 .246-.05.48-.137.696v.001a1.94 1.94 0 0 1-.027.06c-2.21 6.305-3.346 9.55-3.405 9.733 0 0-.874 3.918-5.786 3.64v-.001h-.001a1.639 1.639 0 0 1-1.642-1.636c0-.808.588-1.477 1.36-1.61l-.004-.005a2.063 2.063 0 0 0 1.707-2.57c-.388-1.415-1.316-3.755-2.782-7.019a2.044 2.044 0 0 1-.281-1.034c0-1.138.926-2.06 2.068-2.06.913 0 1.686.589 1.96 1.407l.005-.002 1.733 5.236c.117-.447.647-2.22 1.593-5.318a1.7 1.7 0 0 1 .035-.117l.001-.004v-.004h.002a1.852 1.852 0 0 1 1.748-1.24 1.85 1.85 0 0 1 1.853 1.847zM51.61 9.568c.133-.315.43-.63.894-.946a2.712 2.712 0 0 1 1.534-.461c.559 0 1.07.153 1.534.461.456.308.75.624.883.946H51.61zm2.76-4.443h-.663c-1.67 0-3.094.569-4.27 1.705-1.163 1.13-1.744 2.49-1.744 4.08 0 1.584.581 2.94 1.744 4.069 1.176 1.136 2.6 1.704 4.27 1.704.118 0 .228-.003.331-.01.103.007.213.01.331.01 1.133 0 2.24-.003 3.321-.01.368-.008.695-.125.982-.352.273-.213.445-.48.519-.803l.01-.022c.111-.47.016-.89-.286-1.265-.31-.396-.72-.59-1.236-.583h-3.64a2.707 2.707 0 0 1-1.567-.484c-.464-.315-.762-.645-.894-.99h7.448c.374 0 .698-.124.97-.374.258-.249.387-.542.387-.879v-.011c0-1.59-.585-2.95-1.755-4.08-1.17-1.136-2.59-1.705-4.259-1.705zm30.691 8.536c.205.297.326.656.326 1.044a1.85 1.85 0 0 1-1.853 1.847 1.851 1.851 0 0 1-1.59-.902l-2.86-4.022.005-.022h-.016l.011 2.933h-.047a2.064 2.064 0 0 1-2.067 2.048 2.064 2.064 0 0 1-2.067-2.048V2.244c0-1.139.925-2.061 2.067-2.061 1.142 0 2.068.922 2.068 2.06l.019 4.951 3.17-3.243a1.64 1.64 0 0 1 1.251-.58c.907 0 1.642.733 1.642 1.637 0 .404-.147.773-.39 1.058l-2.686 3.067 3.018 4.528zm10.16-.76c-.486.535-1.056.802-1.71.802-.655 0-1.225-.267-1.71-.803-.501-.557-.751-1.231-.751-2.023s.246-1.46.739-2.002c.493-.542 1.067-.814 1.721-.814.655 0 1.225.264 1.71.792.494.557.74 1.232.74 2.024s-.246 1.466-.74 2.023zm2.913-6.225c-1.177-1.188-2.612-1.782-4.303-1.782h-.662c-1.685 0-3.12.594-4.304 1.782-1.17 1.166-1.754 2.566-1.754 4.2 0 1.65.588 3.062 1.765 4.235 1.177 1.173 2.608 1.76 4.293 1.76h.662c1.691 0 3.126-.594 4.303-1.782 1.177-1.159 1.765-2.562 1.765-4.212 0-1.635-.588-3.035-1.765-4.201zM16.287 2.134c.625.623.938 1.367.938 2.232v10.426l-.01.001a1.988 1.988 0 0 1-1.982 1.813c-1.1 0-1.992-.888-1.992-1.985V8.042l-1.898 6.54a2.632 2.632 0 0 1-.993 1.453 2.793 2.793 0 0 1-1.721.571h-.044c-.64 0-1.214-.19-1.721-.571a2.628 2.628 0 0 1-.994-1.452L3.983 8.045v6.576a1.989 1.989 0 0 1-1.991 1.985 1.989 1.989 0 0 1-1.98-1.767.098.098 0 0 1-.012-.047V4.366c0-.865.313-1.609.938-2.232.618-.616 1.38-.924 2.284-.924h.055c.728 0 1.38.216 1.953.649a2.98 2.98 0 0 1 1.137 1.65l2.262 7.775 2.218-7.765a3.118 3.118 0 0 1 1.158-1.671c.56-.425 1.206-.638 1.942-.638h.055c.905 0 1.667.308 2.285.924zM45.769 10.7v4.039a1.989 1.989 0 0 1-1.992 1.985c-1.1 0-1.992-.889-1.992-1.985V10.7c0-1.09-.887-1.973-1.98-1.973-1.094 0-1.98.884-1.981 1.974v4.063a1.988 1.988 0 0 1-1.992 1.985c-1.1 0-1.991-.888-1.991-1.985v-7.7c0-1.097.891-1.986 1.991-1.986.8 0 1.486.47 1.803 1.147 1.554-1.437 4.15-1.151 4.15-1.151 4.428.595 3.984 5.627 3.984 5.627zm-18.51 2.2c-.485.535-1.055.802-1.71.802s-1.225-.267-1.71-.803c-.5-.557-.75-1.231-.75-2.023s.246-1.46.739-2.002c.493-.542 1.066-.814 1.72-.814.656 0 1.226.264 1.711.792.493.557.74 1.232.74 2.024s-.247 1.466-.74 2.023zm-1.39-8.007h-.662c-1.685 0-3.12.594-4.303 1.782-1.17 1.166-1.755 2.566-1.755 4.2 0 1.65.589 3.062 1.765 4.235 1.177 1.173 2.608 1.76 4.293 1.76h.662c1.692 0 3.126-.594 4.303-1.782 1.177-1.159 1.766-2.562 1.766-4.212 0-1.635-.589-3.035-1.766-4.201-1.177-1.188-2.611-1.782-4.303-1.782z" mask="url(#b)"/>
        </g>
        <path fill="#6179BB" d="M24.695 2.143c1.318 1.976 2.169 5.72 2.174 9.218 1.117 1.352 1.685 2.944 1.43 4.684l.052.008c.142-.93.22-1.893.22-2.86 0-4.381-1.325-8.184-3.095-10.422a3.428 3.428 0 0 0-.781-.628M24.024 24.219h-.002m-.006.002h-.001.001M23.99 24.229h-.002.002m-.007.001h-.002.002m-.007.002h-.002.002M23.954 24.237h-.002.002M23.94 24.24l-.002.001h.002m-.008.001h-.002.002m-.007.002h-.003.003m-.007.002h-.002.002m-.006.001h-.003.003m-.007.001h-.002.002m-.015.004h-.003.003m-.006 0l-.003.001h.003m-.014.003h-.002.002m-.008.001h-.002.002M23.85 24.26h-.003.003m-.006 0l-.003.001h.003m-.007 0l-.003.001h.003m-.009.001h-.002.002m-.006.001l-.003.001h.003m-.006 0h-.003.003m-.007.002h-.003.003m-.007 0l-.002.001h.002m-.008 0l-.003.001h.003m-.007 0l-.002.001h.002m-.006 0l-.003.001h.003m-.007 0l-.002.001h.002m-.006 0h-.004.004m-.009.002h-.002.002m-.006 0h-.003.003m-.006.001h-.003.003m-.007 0l-.003.001h.003m-.015.002h-.003.003m-.007 0h-.002.002m-.007 0l-.001.001h.001m-.006 0h-.002.002m-.015.001h-.002.001m-.068.004h-.001m-.006 0l-.002.001h.002M23.593 24.285h-.001.001m-.006 0h-.003.003m-.007 0h-.002.002m-.007 0h-.002.002"/>
        <path fill="#E03757" d="M8.562.714c-2.092.592-2.164 4.412.503 7.786 1-.443 2.095-.798 3.286-1.037a18.05 18.05 0 0 1 3.556-.344c.631 0 1.263.03 1.89.09l.116-.16c.427-.584.865-1.117 1.333-1.593.418-.425.824-.822 1.22-1.183 1.117-1.018 2.152-1.75 3.127-2.02.271-.075.537-.115.8-.115.41 0 .811.098 1.204.306a4.788 4.788 0 0 0-.6-.7 7.388 7.388 0 0 1 1.432 1.33C25.303 1.733 24.007.957 22.743.957c-2.933 0-4.862 3.23-7.622 3.23-2.363 0-3.309-3.474-6.56-3.474M.715 12.976V13v-.023m0 .027v0m0 .027v.02-.02m0 .025v.02-.02m0 .027v.02-.02m0 .024v0m0 .032v.003-.003m.723 7.554c.43 1.664 1.094 2.819 2.093 2.877-.998-.059-1.661-1.214-2.093-2.877m2.094 2.877h.006-.006m.015.001h.005-.005m.007 0h.005-.005m.007 0h.005-.005m.007 0h.005-.005m.008 0a.05.05 0 0 0 .004.001h-.004m.007 0h.004-.004m.007 0h.004-.004m.007 0h.005-.005m.007 0h.017-.017"/>
        <path fill="#C0D84A" d="M15.287 7.143c-1.178 0-2.354.103-3.49.322-1.17.224-2.244.556-3.226.97l.002.002c1.184 1.427 2.92 2.769 5.272 3.706 1.262-1.867 2.258-3.537 3.298-4.916a20.612 20.612 0 0 0-1.856-.084"/>
        <path fill="#59BA70" d="M27.02 11.429c0 .79-.044 1.57-.138 2.314v.008l-.002.008c-.046.364-.105.72-.175 1.063a15.138 15.138 0 0 1-.913 2.965 12.019 12.019 0 0 1-.796 1.533c.979 2.313.331 4.397-.84 4.868l-.008.002c-.14.047-.279.076-.418.09v-.001h.008l.005-.001h.002l.006-.001h.007l.003-.001h.007l.003-.001a.235.235 0 0 0 .007-.001h.008l.004-.001.004-.001h.007l.003-.001h.004l.002-.001a.04.04 0 0 1 .004 0l.003-.001h.006l.003-.001.004-.001h.007l.003-.001h.003l.003-.001.004-.001h.003l.006-.002h.007l.003-.001h.004l.003-.001.004-.001h.002l.005-.001h.002l.007-.002h.002l.004-.001h.003l.004-.001h.003l.004-.002h.002l.007-.002h.007l.002-.001a.065.065 0 0 0 .007-.002h.004l.003-.001.004-.001h.002l.006-.002h.003l.005-.002h.002l.004-.001h.003l.005-.002h.002l.005-.002h.002c.002 0 .004 0 .006-.002l.007-.001h.002l.005-.002h.002l.005-.002h.002a.42.42 0 0 0 .006-.002l.015-.004a.186.186 0 0 0 .006-.001h.002l.006-.002.022-.007.007-.002.007-.002a.834.834 0 0 0 .022-.006l.008-.003c1.87-.58 3.793-4.035 4.442-8.104l-.054-.008c.264-1.731-.327-3.314-1.49-4.66M23.73 24.28h-.007.007m-.011.001h-.004.004m-.081.005h-.001.001m-.008 0h-.001m-.007 0h-.003.003m-.01 0h-.004.003m-.007 0h-.005.005m-.008 0h-.005.005m-.024 0h.015-.015"/>
        <path fill="#FBBB2F" d="M23.671 2.143a2.78 2.78 0 0 0-.79.12c-.965.286-1.99 1.06-3.095 2.135-.393.381-.795.801-1.209 1.25a15.026 15.026 0 0 0-1.434 1.853c4.073.411 7.933 2.133 10 4.642-.007-3.673-.896-7.601-2.277-9.676a2.375 2.375 0 0 0-1.195-.324"/>
        <path fill="#FBED1E" d="M17.22 7.143c-1.042 1.544-2.038 3.414-3.299 5.503.706.316 1.468.59 2.287.813 5.333 1.454 7.938 4.118 8.918 6.541a12.616 12.616 0 0 0 .793-1.603c.389-.944.688-1.973.91-3.102a15.44 15.44 0 0 0 .177-1.12v-.008c.094-.778.138-1.593.137-2.422-2.05-2.486-5.881-4.194-9.923-4.602m-7.084 11.062"/>
        <path fill="#D7258D" d="M8.584.714C5.9.714.714 5.974.714 12.976v.165c.006 2.122.128 4.509.487 6.462C.868 16.233 3.476 10.981 9.09 8.5 6.414 5.126 6.487 1.306 8.584.714M10 18.234c-1.012.92-2.028 2.51-3.225 3.715 1.197-1.206 2.213-2.795 3.225-3.714M3.884 23.56h-.001m-.008 0l-.001.001m-.042.003H3.83h.002m-.009 0l-.002.001h.002m-.01 0h-.002.003m-.025.002h-.003.003m-.008 0h-.004.004m-.01 0h-.004.005m-.01.001h-.004.004m-.01 0h-.004.004m-.023.001h-.005.005m-.01 0l-.004.001h.005m-.01 0h-.005.005m-.01 0h-.005.005m-.01 0h-.005.006m-.01 0l-.01.001h.01m-.013 0h-.006.006m-.01 0h-.006.006m-.01 0h-.006.006m-.01 0h-.006.006m-.01 0h-.01.01"/>
        <path fill="#64C9DB" d="M1.456 19.622c.068.38.144.742.23 1.084.418 1.655 1.06 2.805 2.028 2.863l.041.002h.126l.04-.002.05-.003.068-.005c1.073-.096 1.979-.751 2.797-1.598C8 20.757 8.98 19.175 9.959 18.26c.153-.143.307-.27.46-.377 1.594-1.896 2.822-3.706 3.867-5.37-2.323-.996-4.036-2.422-5.206-3.94-5.426 2.467-7.946 7.694-7.624 11.05z"/>
        <path fill="#EA94BE" d="M25.936 19.286c-.745 1.18-1.695 2.208-2.89 3.133l-.189.038c.227.581.472 1.084.775 1.415a.031.031 0 0 0 .004.004l.001.002.006.006c.217.233.463.377.752.399l.017.001H24.43l.007.001H24.547l.007-.001h.016l.005-.001H24.585l.006-.001h.008l.006-.001h.007l.004-.001h.004l.008-.001c.144-.013.288-.043.432-.09l.009-.002c1.208-.475 1.877-2.572.867-4.901"/>
        <path fill="#AF85BC" d="M14.073 12.857c-1.1 1.644-2.395 3.433-4.073 5.307.047-.03.094-.06.142-.086a1.88 1.88 0 0 1 .885-.273h.034c2.64 0 2.576 3.732 4.124 3.732 1.483 0 1.68-3.422 4.21-3.422H19.45l.003.001h.021l.008.001h.014l.009.001H19.513l.005.001a.41.41 0 0 1 .005 0h.005l.006.001h.007l.005.001a1316.512 1316.512 0 0 1 .014.002h.003l.012.001H19.584l.002.001h.008c.008.002.015.003.023.003l.008.002c.523.066.937.361 1.28.791l.002.002.004.005.005.006.002.002.005.007.001.002c.77.98 1.188 2.637 1.7 3.912l.19-.037c1.197-.902 2.152-1.906 2.9-3.057-1.018-2.276-3.724-4.777-9.264-6.143a17.553 17.553 0 0 1-2.377-.763"/>
        <path fill="#361943" d="M26.286 22.318c.125-.916-.022-1.895-.414-2.856.785-1.298 1.34-2.776 1.695-4.484a16.18 16.18 0 0 0 .309-2.747c.478.669.796 1.367.954 2.085-.13 2.259-.704 4.56-1.621 6.44-.29.596-.602 1.12-.923 1.562m-3.112.243a12.3 12.3 0 0 0 2.358-2.57c.356 1.06.31 1.903.244 2.325-.05.332-.141.628-.261.884-.469.432-.934.67-1.354.67-.367 0-.696-.585-.987-1.309m-3.746-5.364c-1.723 0-2.54 1.371-3.135 2.372-.33.554-.67 1.126-.972 1.126-.3 0-.61-.619-.908-1.216-.543-1.085-1.285-2.566-3.054-2.6a48.996 48.996 0 0 0 2.977-4.183c.658.268 1.375.509 2.156.71 3.442.89 6.108 2.37 7.71 4.28a7.496 7.496 0 0 1 1.108 1.74 11.612 11.612 0 0 1-2.324 2.638 41.701 41.701 0 0 1-.273-.793c-.64-1.91-1.368-4.074-3.285-4.074M7.74 19.69c-1.222 1.55-2.607 3.305-4.285 3.305-.722 0-1.348-1.113-1.762-3.134a22.654 22.654 0 0 1-.312-2.05c.508-3.133 2.994-7.03 7.436-9.1.06.073.119.147.181.22.95 1.115 2.5 2.51 4.867 3.564a47.438 47.438 0 0 1-3.25 4.502c-1.037.364-1.935 1.5-2.875 2.693M3.94 4.424C4.95 3.053 6.01 2.136 6.905 1.625c-.205.468-.312 1.037-.303 1.683.02 1.6.703 3.384 1.89 4.989A14.3 14.3 0 0 0 3.32 12.41c-.945 1.206-1.65 2.522-2.077 3.82a52.21 52.21 0 0 1-.101-3.329c0-4.064 1.753-7.056 2.798-8.477m10.975.201c1.532 0 2.787-.858 4.001-1.689 1.175-.803 2.284-1.562 3.588-1.562.467 0 .947.133 1.422.382-1.679.13-3.434 1.707-5.085 3.405-.486.5-.94 1.06-1.382 1.675-1.828-.162-3.653-.075-5.353.271a15.995 15.995 0 0 0-3.14.976c-1.152-1.532-1.838-3.28-1.858-4.782-.011-.895.218-1.612.636-2.057.24-.076.456-.114.641-.114 1.518 0 2.443.874 3.423 1.8.883.833 1.796 1.695 3.107 1.695m6.346 2.916a20.187 20.187 0 0 0-3.22-.645c.376-.506.76-.97 1.164-1.387 1.563-1.607 3.37-3.25 4.927-3.26.229-.002.45.033.667.1.242.202.48.432.711.69 1.082 1.907 1.771 4.918 1.863 7.835-1.45-1.437-3.576-2.603-6.112-3.333m-7.123 4.526c-2.32-1.019-3.831-2.376-4.754-3.459L9.295 8.5c.897-.38 1.866-.688 2.913-.901 1.584-.323 3.259-.405 4.912-.282-.579.845-1.15 1.778-1.764 2.782-.388.635-.79 1.292-1.218 1.968m1.651-1.708c.667-1.09 1.283-2.097 1.91-2.99 3.924.407 7.654 1.966 9.685 4.246-.005 1.143-.104 2.255-.313 3.262-.32 1.538-.793 2.861-1.451 4.03a8.233 8.233 0 0 0-1.029-1.542c-1.67-1.99-4.426-3.527-7.971-4.444a16.562 16.562 0 0 1-2.01-.656c.413-.654.803-1.29 1.18-1.906m13.062 2.505a7.017 7.017 0 0 0-.966-1.44c-.015-2.185-.37-4.469-.978-6.366 1.097 2.025 1.87 4.747 1.944 7.806m-1.135-8.696c-1.45-2.494-3.35-3.924-5.213-3.924-1.66 0-2.97.896-4.237 1.762-1.119.766-2.176 1.489-3.352 1.489-.854 0-1.533-.641-2.32-1.383C11.549 1.122 10.36 0 8.386 0 6.804 0 4.696 1.475 3.017 3.759 1.89 5.29 0 8.516 0 12.9c0 2.004.1 4.877.573 7.186.205.999.828 4.04 2.88 4.04 2.236 0 3.803-1.988 5.186-3.74.922-1.17 1.876-2.379 2.66-2.379 1.027 0 1.495.781 2.09 1.972.454.907.923 1.845 1.932 1.845.954 0 1.463-.855 1.955-1.682.653-1.097 1.156-1.816 2.152-1.816 1.094 0 1.657 1.678 2.202 3.3.582 1.735 1.132 3.373 2.53 3.373C27.109 25 30 19.228 30 13.348c0-3.387-.81-6.647-2.283-9.18"/>
    </g>
</svg>
