<svg xmlns="http://www.w3.org/2000/svg" xmlns:xlink="http://www.w3.org/1999/xlink" width="215" height="133" viewBox="0 0 215 133">
    <defs>
        <path id="a" d="M0 .392h214.63v45.523H0z"/>
    </defs>
    <g fill="none" fill-rule="evenodd">
        <path fill="#6179BB" d="M139.292 7.673c4.384 6.278 7.212 18.169 7.231 29.282 3.713 4.295 5.6 9.35 4.757 14.88l.17.025c.472-2.957.733-6.015.733-9.089 0-13.915-4.408-25.995-10.292-33.104-.854-.857-1.72-1.516-2.599-1.994m-2.048 70.071h-.001.001M137.152 77.771l-.003.001h.003m-.023.006h-.002.002m-.07.02h-.004.003m-.02.006h-.005.004m-.023.007h-.003.003m-.048.012h-.002.002m-.022.005l-.006.001h.006m-.021.005l-.007.001.007-.001m-.023.005c-.002 0-.004 0-.006.002l.006-.002m-.026.007h-.001m-.022.005h-.003.003m-.022.005l-.006.002.006-.002m-.043.01l-.008.002.008-.002m-.025.005l-.008.003.008-.003m-.025.006l-.008.002.008-.002m-.022.005l-.008.002.008-.002m-.022.005l-.008.001.008-.001m-.022.004l-.007.001h.007m-.05.01h-.008.009m-.021.003l-.01.002.01-.002M136.555 77.914l-.007.002.007-.002m-.028.005l-.007.001.007-.001m-.043.007l-.009.002.009-.002m-.021.004l-.01.002a.089.089 0 0 0 .01-.002m-.022.004l-.009.001.009-.001m-.03.005h-.008.009m-.021.003c-.004 0-.006 0-.01.002l.01-.002m-.021.003l-.01.002.01-.002m-.022.004l-.01.001h.01m-.022.002l-.01.001a.088.088 0 0 1 .01-.001m-.029.004l-.01.001.01-.001m-.022.003l-.009.001.01-.001m-.022.003l-.01.001.01-.001m-.021.003l-.01.001.01-.001M136.182 77.97h-.008.008m-.021.002l-.01.001h.01m-.021.002h-.01.01m-.023.002l-.008.001h.008m-.05.005h-.008.008m-.022.002h-.007.007m-.022.001h-.004l-.002.001h.006m-.006 0h-.001m-.016.001h-.006.006m-.027.003h-.003.002m-.02.002h-.006.004m-.206.011h-.002.002m-.022.001h-.004.004m-.023.001h-.006.006m-.025 0h-.002.002m-.045.002h-.003.003m-.02 0h-.008.007m-.022 0h-.007.007m-.024 0h-.004.004"/>
        <path fill="#E03757" d="M87.251 1.279c-6.554 1.888-6.779 14.07 1.578 24.83a48.79 48.79 0 0 1 10.295-3.31c3.625-.743 7.38-1.095 11.141-1.095 1.978 0 3.958.097 5.923.287.12-.17.24-.34.361-.508 1.339-1.865 2.71-3.564 4.179-5.08a97.324 97.324 0 0 1 3.824-3.776c3.496-3.245 6.74-5.58 9.795-6.441a9.221 9.221 0 0 1 2.504-.365c1.289 0 2.544.31 3.773.975a15.2 15.2 0 0 0-1.876-2.236c1.549 1.091 3.054 2.517 4.473 4.233l.01.009c-3.527-4.273-7.589-6.747-11.548-6.747-9.189 0-15.234 10.302-23.88 10.302-7.403 0-10.369-11.078-20.552-11.078M62.663 40.384v.074-.074m0 .085v0m0 .085v.065-.065m0 .082v.063-.063m0 .086v.063-.063m0 .077l.001.064v-.064m0 .102v.008-.008m2.265 24.09c1.349 5.304 3.426 8.988 6.557 9.175-3.129-.187-5.206-3.872-6.557-9.175m6.56 9.175h.019-.02m.023.001l.018.001h-.018m.024 0h.017-.017m.023.001h.015-.015m.022.001h.016-.016m.023.001h.015-.015m.023 0h.013-.013m.022.001h.013-.013m.022 0h.014-.014m.023 0l.014.001h-.014m.022 0h.052-.052"/>
        <path fill="#C0D84A" d="M109.283 21.74c-3.693 0-7.379.345-10.936 1.07a48.098 48.098 0 0 0-10.107 3.229l.004.004c3.711 4.746 9.148 9.207 16.52 12.322 3.954-6.207 7.073-11.76 10.332-16.345a60.883 60.883 0 0 0-5.813-.28"/>
        <path fill="#59BA70" d="M146.14 37.087c.005 2.518-.132 5-.42 7.367l-.003.023a46.316 46.316 0 0 1-.543 3.41c-.682 3.436-1.606 6.566-2.802 9.438a38.827 38.827 0 0 1-2.44 4.88c3.002 7.361 1.015 13.993-2.58 15.493l-.024.006a5.47 5.47 0 0 1-1.283.285l.002-.001.015-.001.007-.001.014-.002h.007l.02-.002.02-.003h.008l.013-.002h.01l.01-.002a.696.696 0 0 0 .03-.004l.015-.002a.095.095 0 0 1 .012-.001l.012-.002.01-.001.011-.002.01-.001.011-.001.009-.002a.121.121 0 0 1 .012-.001l.009-.002.019-.002.008-.002.012-.002.01-.001.01-.002.01-.001.01-.002a.07.07 0 0 0 .01-.002l.013-.001.009-.002a.29.29 0 0 0 .018-.003l.009-.002.012-.002c.003 0 .006 0 .009-.002.003 0 .007 0 .012-.002l.008-.001a.131.131 0 0 0 .013-.002l.008-.002c.005 0 .01-.001.013-.003h.008l.02-.005h.007l.012-.003.01-.002c.004 0 .008-.002.011-.003l.01-.001.012-.003.008-.001.02-.005c.007 0 .013-.003.02-.004l.008-.001a.194.194 0 0 0 .021-.005l.013-.003.008-.002a.162.162 0 0 0 .014-.003l.006-.001.017-.004.008-.002.016-.003.007-.002.014-.004.008-.001a.165.165 0 0 1 .013-.004l.007-.001.017-.004.004-.001.02-.006h.002l.02-.005.005-.001a.806.806 0 0 1 .015-.004l.007-.002.015-.004a1.251 1.251 0 0 0 .025-.007h.001l.044-.011.002-.001a.554.554 0 0 0 .018-.005l.005-.002a.976.976 0 0 1 .018-.005h.002l.066-.02h.002l.02-.006h.002l.02-.007h.001a2.49 2.49 0 0 0 .067-.02v-.001l.022-.007h.001c5.742-1.845 11.642-12.845 13.633-25.795l-.165-.025c.812-5.512-1.003-10.55-4.571-14.831m-10.1 40.902l-.022.001h.008l.015-.001m-.035.003h-.01.01m-.226.014h-.002.002m-.021 0h-.005.004m-.025.002h-.004.004m-.023 0h-.009.01m-.032 0l-.014.001h.01m-.021 0h-.015H135.655m-.025 0h-.016.015m-.071 0h.047-.047"/>
        <path fill="#FBBB2F" d="M135.968 6.394c-.828 0-1.67.128-2.525.37-3.088.877-6.366 3.253-9.897 6.55a99.26 99.26 0 0 0-3.864 3.84c-1.48 1.542-2.866 3.272-4.222 5.168-.122.17-.242.343-.364.516 13.022 1.263 25.365 6.55 31.971 14.249-.021-11.274-2.864-23.33-7.279-29.696-1.244-.68-2.516-.997-3.82-.997"/>
        <path fill="#FBED1E" d="M115.238 23.02c-3.342 4.761-6.537 10.527-10.583 16.968a51.929 51.929 0 0 0 7.336 2.506c17.107 4.484 25.464 12.697 28.607 20.17a39.128 39.128 0 0 0 2.544-4.944c1.246-2.91 2.208-6.082 2.92-9.564a45.902 45.902 0 0 0 .566-3.455l.003-.024c.3-2.398.44-4.912.436-7.467-6.577-7.667-18.865-12.932-31.829-14.19M92.514 57.13"/>
        <path fill="#D7258D" d="M87.593 1.279c-8.502 0-24.93 16.777-24.93 39.105V40.8l.001.064v.046c.019 6.768.405 14.378 1.542 20.61-1.054-10.752 7.206-27.5 24.986-35.41-8.473-10.76-8.244-22.942-1.6-24.83m4.485 55.875c-3.207 2.93-6.422 8-10.217 11.845 3.795-3.845 7.01-8.913 10.217-11.845M72.73 74.135h-.001m-.027.002H72.7h.001m-.026.003h-.003.003m-.11.008h-.003.003m-.026.002h-.006.006m-.028.002h-.008.008m-.03.002h-.007.007m-.029.001h-.001.001m-.048.003h-.009.01m-.027.002h-.013a.14.14 0 0 1 .013 0m-.03.001h-.013.013m-.03.002h-.013.012m-.03 0l-.013.002.013-.001m-.073.003h-.016.016m-.031.001h-.016.016m-.03 0l-.017.001h.017m-.03 0l-.018.001h.018m-.032 0l-.018.001h.018m-.03 0h-.03.03m-.04 0l-.022.001h.022m-.033 0h-.019.019m-.032 0h-.02.02m-.031 0l-.02.001h.02m-.03 0h-.032.031"/>
        <path fill="#64C9DB" d="M64.03 62.657a52.48 52.48 0 0 0 .732 3.51c1.33 5.363 3.375 9.088 6.456 9.277l.129.006.148.002.124-.001.127-.003.13-.005.16-.009c.146-.01.18-.012.214-.016 3.416-.312 6.3-2.434 8.902-5.176 3.706-3.91 6.828-9.035 9.942-11.997.488-.465.976-.876 1.465-1.221 5.072-6.143 8.983-12.007 12.306-17.396-7.393-3.228-12.846-7.85-16.568-12.767-17.27 7.993-25.291 24.926-24.268 35.796z"/>
        <path fill="#EA94BE" d="M141.643 61.385c-2.401 3.623-5.462 6.777-9.31 9.617l-.612.117c.731 1.782 1.522 3.327 2.498 4.342a.097.097 0 0 0 .011.012l.005.005.02.02c.699.714 1.49 1.157 2.422 1.224l.054.003h.002l.026.002h.031l.023.002H136.841l.004.001H137.069l.008-.001H137.099l.015-.001H137.142l.003-.001.022-.001h.021l.007-.001h.015l.005-.001.018-.001h.024l.006-.001.022-.001h.005c.006-.002.012-.002.018-.002h.004l.018-.002h.005l.018-.001h.007l.018-.002.01-.001h.015l.024-.003h.004c.462-.039.926-.13 1.39-.275l.028-.007c3.894-1.457 6.048-7.895 2.794-15.043"/>
        <path fill="#AF85BC" d="M104.674 39.644c-3.405 5.256-7.407 10.977-12.597 16.967.146-.097.292-.19.438-.276.875-.518 1.758-.83 2.661-.868l.077-.002H95.283l.019-.001h.057c8.165 0 7.966 11.93 12.752 11.93 4.586 0 5.197-10.94 13.02-10.94h.041l.022.001H121.235l.03.001h.01l.022.001h.01l.023.001a.04.04 0 0 0 .007 0l.03.002h.006l.024.001h.012l.02.002h.01l.028.002h.012l.018.002h.014l.015.002h.015l.02.002.021.002.014.001a12183.71 12183.71 0 0 1 .046.004l.009.001.037.004h.004l.022.002.008.001.02.002.005.001.069.008h.003l.023.004c1.617.213 2.897 1.155 3.96 2.53l.004.006.013.017.016.02a.05.05 0 0 0 .004.006l.017.022a.044.044 0 0 0 .004.005c2.378 3.132 3.672 8.432 5.256 12.508l.59-.119c3.7-2.884 6.654-6.093 8.967-9.773-3.148-7.276-11.518-15.273-28.65-19.639a53.02 53.02 0 0 1-7.349-2.44"/>
        <path fill="#361943" d="M143.025 70.781c.394-2.902-.07-6.009-1.305-9.057 2.474-4.116 4.228-8.804 5.347-14.22.56-2.713.874-5.663.972-8.712 1.509 2.12 2.513 4.336 3.01 6.613-.408 7.162-2.221 14.46-5.113 20.426-.914 1.886-1.9 3.55-2.911 4.95m-9.817.772c2.931-2.44 5.4-5.135 7.438-8.152 1.124 3.36.975 6.035.77 7.376a10.31 10.31 0 0 1-.824 2.804c-1.479 1.369-2.945 2.123-4.272 2.123-1.155 0-2.193-1.856-3.112-4.15M121.392 54.54c-5.436 0-8.011 4.35-9.891 7.525-1.04 1.755-2.113 3.569-3.066 3.569-.946 0-1.922-1.96-2.865-3.857-1.713-3.441-4.053-8.136-9.631-8.242 3.684-4.64 6.711-9.073 9.388-13.27a53.509 53.509 0 0 0 6.801 2.255c10.86 2.822 19.27 7.514 24.32 13.57 1.606 1.926 2.724 3.789 3.498 5.518-1.964 3.102-4.381 5.854-7.332 8.37-.3-.843-.587-1.702-.86-2.515-2.022-6.058-4.315-12.923-10.362-12.923m-36.873 7.91C80.664 67.364 76.296 72.933 71 72.933c-2.277 0-4.25-3.53-5.559-9.94-.418-2.049-.737-4.253-.983-6.5 1.601-9.937 9.445-22.295 23.456-28.864.19.234.376.468.572.699 2.997 3.537 7.886 7.963 15.352 11.302-2.881 4.505-6.17 9.279-10.25 14.281-3.273 1.152-6.104 4.758-9.07 8.539M72.535 14.032c3.182-4.35 6.525-7.256 9.352-8.878-.645 1.485-.983 3.288-.956 5.336.066 5.078 2.217 10.733 5.966 15.823-7.78 3.692-13.014 8.805-16.317 13.045-2.981 3.827-5.206 8-6.553 12.118-.246-3.809-.32-7.508-.32-10.56 0-12.89 5.53-22.377 8.828-26.884m34.62.637c4.832 0 8.792-2.723 12.622-5.356 3.705-2.549 7.205-4.955 11.318-4.955 1.473 0 2.985.42 4.485 1.212-5.296.41-10.831 5.412-16.042 10.798-1.532 1.584-2.961 3.365-4.36 5.313-5.765-.513-11.521-.237-16.884.86a50.257 50.257 0 0 0-9.906 3.095c-3.632-4.859-5.797-10.403-5.859-15.166-.037-2.838.687-5.112 2.007-6.524.754-.24 1.436-.362 2.02-.362 4.788 0 7.707 2.772 10.798 5.707 2.785 2.644 5.665 5.378 9.802 5.378m20.016 9.246a63.378 63.378 0 0 0-10.156-2.044c1.185-1.604 2.395-3.079 3.673-4.4 4.93-5.095 10.631-10.309 15.54-10.34a6.919 6.919 0 0 1 2.105.319c.762.639 1.512 1.37 2.244 2.187 3.412 6.05 5.587 15.599 5.877 24.85-4.577-4.557-11.281-8.255-19.283-10.572M104.703 38.27c-7.316-3.23-12.085-7.535-14.995-10.968-.096-.113-.186-.23-.28-.344a47.937 47.937 0 0 1 9.188-2.859c4.995-1.022 10.279-1.283 15.496-.892-1.827 2.68-3.63 5.64-5.566 8.823-1.225 2.014-2.492 4.096-3.843 6.24m5.21-5.415c2.103-3.458 4.046-6.65 6.024-9.485 12.378 1.292 24.146 6.235 30.55 13.469-.014 3.624-.326 7.151-.986 10.344-1.007 4.879-2.503 9.074-4.578 12.783a26.124 26.124 0 0 0-3.245-4.892c-5.266-6.313-13.96-11.187-25.146-14.094a52.046 52.046 0 0 1-6.34-2.08 482.099 482.099 0 0 0 3.72-6.045m41.207 7.943a22.27 22.27 0 0 0-2.326-3.682c-.23-.298-.473-.591-.72-.883-.049-6.932-1.166-14.174-3.086-20.192 3.459 6.424 5.897 15.056 6.132 24.757m-3.58-27.58C142.968 5.31 136.975.773 131.096.773c-5.236 0-9.37 2.842-13.365 5.59-3.531 2.428-6.866 4.722-10.574 4.722-2.695 0-4.837-2.034-7.317-4.388C96.533 3.557 92.786 0 86.557 0c-4.99 0-11.636 4.68-16.934 11.921-3.554 4.86-9.517 15.089-9.517 28.996 0 6.354.313 15.466 1.807 22.789.646 3.169 2.613 12.812 9.088 12.812 7.052 0 11.995-6.303 16.356-11.862 2.909-3.708 5.917-7.542 8.39-7.542 3.241 0 4.716 2.476 6.596 6.254 1.431 2.876 2.91 5.85 6.092 5.85 3.01 0 4.616-2.711 6.168-5.333 2.06-3.48 3.646-5.76 6.789-5.76 3.45 0 5.227 5.322 6.945 10.468 1.837 5.5 3.572 10.695 7.983 10.695 9.296 0 18.42-18.304 18.42-36.955 0-10.742-2.557-21.082-7.2-29.115"/>
        <g transform="translate(0 86.962)">
            <mask id="b" fill="#fff">
                <use xlink:href="#a"/>
            </mask>
            <path fill="#361A44" d="M156.595 15.53c0 .528-.106 1.032-.294 1.493v.005h-.002c-.017.041-.036.084-.056.126-4.75 13.548-7.188 20.52-7.315 20.912 0 0-1.88 8.417-12.432 7.819h-.003a3.521 3.521 0 0 1-3.527-3.516 3.517 3.517 0 0 1 2.92-3.46l-.007-.009a4.433 4.433 0 0 0 3.668-5.52v-.001c-.835-3.04-2.828-8.068-5.977-15.08a4.39 4.39 0 0 1-.604-2.222 4.436 4.436 0 0 1 4.443-4.428 4.44 4.44 0 0 1 4.211 3.024l.01-.003 3.724 11.25c.252-.962 1.391-4.77 3.422-11.427.023-.086.048-.17.077-.252l.002-.008v-.009l.003.002a3.978 3.978 0 0 1 3.756-2.664 3.974 3.974 0 0 1 3.981 3.967zm-45.712 5.026c.285-.676.924-1.354 1.92-2.031a5.827 5.827 0 0 1 3.296-.992c1.2 0 2.3.33 3.295.992.98.661 1.612 1.339 1.896 2.031h-10.407zm5.927-9.545h-1.423c-3.588 0-6.646 1.221-9.174 3.662-2.498 2.427-3.746 5.349-3.746 8.766 0 3.403 1.248 6.317 3.746 8.743 2.528 2.441 5.586 3.662 9.174 3.662.253 0 .49-.009.712-.024.22.015.457.024.711.024 2.434 0 4.812-.009 7.136-.024a3.424 3.424 0 0 0 2.11-.756c.585-.457.955-1.031 1.114-1.725l.023-.047c.237-1.008.032-1.913-.616-2.717-.665-.85-1.55-1.268-2.655-1.253h-7.823a5.816 5.816 0 0 1-3.366-1.039c-.996-.677-1.636-1.386-1.92-2.127h16.001c.805 0 1.501-.267 2.086-.803.553-.535.83-1.166.83-1.89v-.024c0-3.417-1.257-6.34-3.77-8.766-2.512-2.44-5.563-3.662-9.15-3.662zm65.941 18.339c.44.638.699 1.41.699 2.243a3.974 3.974 0 0 1-3.981 3.967 3.977 3.977 0 0 1-3.415-1.936l-6.145-8.643.01-.045h-.034l.024 6.3h-.1a4.434 4.434 0 0 1-4.442 4.4 4.434 4.434 0 0 1-4.441-4.4h-.001V4.82a4.435 4.435 0 0 1 4.442-4.428 4.435 4.435 0 0 1 4.443 4.428l.04 10.636 6.81-6.968a3.524 3.524 0 0 1 2.69-1.244 3.521 3.521 0 0 1 3.527 3.516c0 .867-.316 1.66-.84 2.273h.001l-5.77 6.588 6.484 9.728zm21.827-1.634c-1.043 1.15-2.268 1.725-3.674 1.725-1.407 0-2.632-.575-3.675-1.725-1.075-1.197-1.612-2.647-1.612-4.347 0-1.702.53-3.135 1.588-4.3 1.06-1.166 2.292-1.75 3.699-1.75 1.406 0 2.631.568 3.674 1.702 1.059 1.197 1.588 2.646 1.588 4.348 0 1.7-.529 3.15-1.588 4.347zm6.258-13.374c-2.527-2.551-5.61-3.827-9.245-3.827h-1.422c-3.62 0-6.702 1.276-9.246 3.827-2.513 2.505-3.769 5.514-3.769 9.027 0 3.544 1.264 6.576 3.793 9.096 2.528 2.52 5.602 3.78 9.222 3.78h1.422c3.635 0 6.718-1.275 9.245-3.827 2.53-2.489 3.793-5.505 3.793-9.05 0-3.512-1.264-6.52-3.793-9.026zM34.991 4.584c1.343 1.34 2.015 2.938 2.015 4.797v22.4l-.019.001a4.271 4.271 0 0 1-4.26 3.896 4.272 4.272 0 0 1-4.279-4.264V17.278l-4.077 14.053c-.349 1.276-1.06 2.315-2.134 3.119a6 6 0 0 1-3.698 1.228h-.095a5.998 5.998 0 0 1-3.698-1.228c-1.076-.804-1.787-1.843-2.134-3.12L8.558 17.286v14.129a4.272 4.272 0 0 1-4.28 4.264A4.273 4.273 0 0 1 .028 31.88a.211.211 0 0 1-.027-.1V9.381c0-1.859.672-3.458 2.015-4.797C3.343 3.261 4.98 2.6 6.923 2.6h.118c1.564 0 2.963.466 4.196 1.395 1.233.914 2.047 2.095 2.441 3.544l4.86 16.705 4.766-16.682c.41-1.449 1.24-2.646 2.49-3.59 1.2-.915 2.59-1.372 4.171-1.372h.118c1.945 0 3.58.662 4.908 1.985zM98.332 22.99v8.678a4.272 4.272 0 0 1-4.28 4.265 4.272 4.272 0 0 1-4.278-4.265V22.99a4.248 4.248 0 0 0-4.255-4.24 4.248 4.248 0 0 0-4.256 4.24v8.73a4.272 4.272 0 0 1-4.279 4.266 4.272 4.272 0 0 1-4.279-4.265V15.175a4.272 4.272 0 0 1 4.28-4.266 4.276 4.276 0 0 1 3.873 2.463c3.338-3.087 8.916-2.472 8.916-2.472 9.512 1.278 8.558 12.09 8.558 12.09zm-39.767 4.726c-1.043 1.15-2.267 1.725-3.674 1.725s-2.632-.575-3.674-1.725c-1.075-1.197-1.612-2.647-1.612-4.347 0-1.702.529-3.135 1.588-4.3 1.059-1.166 2.291-1.75 3.698-1.75s2.631.568 3.674 1.702c1.06 1.197 1.588 2.646 1.588 4.348 0 1.7-.529 3.15-1.588 4.347zm-2.987-17.201h-1.422c-3.62 0-6.701 1.276-9.245 3.827-2.514 2.505-3.77 5.514-3.77 9.027 0 3.544 1.264 6.576 3.793 9.096 2.528 2.52 5.603 3.78 9.222 3.78h1.422c3.636 0 6.717-1.275 9.246-3.827 2.528-2.489 3.794-5.505 3.794-9.05 0-3.512-1.266-6.52-3.794-9.026-2.529-2.551-5.61-3.827-9.246-3.827z" mask="url(#b)"/>
        </g>
    </g>
</svg>
