<svg xmlns="http://www.w3.org/2000/svg" width="74" height="62" viewBox="0 0 74 62">
    <g fill="none" fill-rule="evenodd">
        <path fill="#6179BB" d="M61.92 6c3.428 4.909 5.64 14.207 5.654 22.897 2.903 3.359 4.38 7.311 3.72 11.635l.133.02A45.28 45.28 0 0 0 72 33.445c0-10.88-3.446-20.327-8.048-25.886-.667-.67-1.344-1.186-2.032-1.559m-1.583 54.787h-.001m-.017.005h-.001M60.248 60.814h-.002.002m-.073.02l-.003.001h.002m-.016.004h-.004.004m-.019.005h-.002.002m-.037.01H60.1m-.016.004l-.005.001h.005m-.017.003l-.005.002.005-.002m-.017.005l-.005.001.005-.001M60.01 60.876h-.002.002m-.017.004l-.005.001h.005m-.034.007l-.005.001.005-.001m-.019.004c-.002 0-.004 0-.006.002l.006-.002m-.02.005l-.006.001.007-.001m-.018.003l-.006.001h.006m-.017.003l-.006.001.006-.001m-.017.003l-.006.001h.006m-.039.007l-.007.002.007-.002m-.016.004h-.008.008m-.035.006l-.006.001h.006m-.022.003l-.006.001h.006m-.034.005l-.007.001.007-.001m-.016.003c-.003 0-.005 0-.007.002a.07.07 0 0 0 .007-.002m-.018.003h-.006.006m-.022.003l-.007.001h.007m-.016.002l-.009.001h.009m-.017.002h-.008.008m-.017.003h-.008.008m-.017.002l-.008.001.008-.001m-.023.003h-.007.007m-.017.002l-.007.001h.007m-.016.002h-.008.008m-.017.002l-.008.001.008-.001m-.018.002l-.01.001h.01m-.022.002h-.006.006m-.017.002h-.007.007m-.016.001l-.008.001h.008m-.017.001l-.007.001h.007m-.039.004h-.007.007m-.018.001h-.006.006m-.017.002h-.005.005m-.018.001h-.005.005m-.021.002h-.003.002m-.016.002h-.004.003m-.178.009h-.004.004m-.018.001h-.005.005m-.02 0h-.001.001m-.035.001h-.003.003m-.016 0h-.006.006m-.018.001h-.005.005m-.018 0H59h.004"/>
        <path fill="#E03757" d="M21.227 1c-5.125 1.477-5.301 11.002 1.233 19.416a38.152 38.152 0 0 1 8.05-2.588c2.835-.58 5.77-.857 8.712-.857 1.547 0 3.095.076 4.631.225l.283-.397c1.047-1.459 2.12-2.787 3.268-3.973a76.103 76.103 0 0 1 2.99-2.952c2.733-2.538 5.27-4.364 7.66-5.037a7.21 7.21 0 0 1 1.958-.285c1.007 0 1.989.242 2.95.762a11.886 11.886 0 0 0-1.467-1.748c1.211.853 2.388 1.968 3.497 3.31l.008.007c-2.758-3.342-5.934-5.276-9.03-5.276-7.185 0-11.912 8.056-18.673 8.056C31.508 9.663 29.189 1 21.227 1M2 31.579v.057-.057m0 .066v0m0 .066v.051-.05m0 .063v.05-.05m0 .068v.049-.05m0 .06v0m0 .08v.007-.006M3.773 50.82c1.054 4.148 2.679 7.028 5.127 7.174-2.447-.146-4.071-3.027-5.127-7.174M8.9 57.994l.015.001h-.015m.018 0l.014.001h-.014m.018 0h.013-.013m.018.001h.012-.012m.017 0a.15.15 0 0 0 .013.001h-.013m.018 0h.012-.012m.018 0a.12.12 0 0 0 .01.001h-.01m.017 0h.01-.01m.018 0h.01-.01m.017 0a.13.13 0 0 0 .012.001H9.06m.018 0h.041-.041"/>
        <path fill="#C0D84A" d="M38.454 17c-2.887 0-5.77.27-8.551.836A37.61 37.61 0 0 0 22 20.361l.003.004c2.902 3.71 7.153 7.2 12.917 9.635 3.092-4.854 5.532-9.196 8.08-12.781A47.608 47.608 0 0 0 38.454 17"/>
        <path fill="#59BA70" d="M67.275 29c.004 1.97-.103 3.91-.329 5.76l-.002.019-.003.02c-.11.907-.251 1.79-.421 2.647-.533 2.686-1.256 5.133-2.192 7.38a30.36 30.36 0 0 1-1.908 3.815c2.348 5.757.794 10.942-2.016 12.115l-.02.005c-.335.117-.67.19-1.003.223l.002-.001.012-.001h.005l.01-.002a.03.03 0 0 1 .006 0l.016-.002.016-.002h.006l.01-.002h.008l.007-.001a.544.544 0 0 0 .018-.002l.006-.001.012-.001a.075.075 0 0 1 .01-.002l.009-.001.008-.001.008-.001.007-.001.01-.001.006-.001a.095.095 0 0 1 .01-.002h.007l.014-.003h.007c.003-.002.007-.002.01-.002l.006-.001a.122.122 0 0 1 .01-.002l.007-.001.008-.001.008-.002.01-.001.006-.001.015-.003h.007l.009-.003h.007l.01-.003h.006a.102.102 0 0 0 .01-.002l.006-.001a.09.09 0 0 0 .01-.003h.006l.016-.004h.005a.59.59 0 0 0 .01-.003h.008l.009-.003.007-.001.01-.002.006-.001.015-.004c.006 0 .011-.002.017-.003l.005-.001a.152.152 0 0 0 .017-.004l.01-.002.006-.002a.126.126 0 0 0 .011-.002l.005-.001.013-.003.007-.001.012-.003.006-.002.01-.002.007-.002a.129.129 0 0 1 .01-.002l.005-.002c.004 0 .009-.001.013-.003h.004l.016-.005.016-.004h.005a.632.632 0 0 1 .012-.004l.005-.001.011-.003a.018.018 0 0 1 .005-.001l.015-.004h.001l.034-.01h.002a.433.433 0 0 0 .014-.004l.004-.001.014-.004.002-.001.051-.015h.002l.015-.005h.002l.016-.005.052-.017.018-.005c4.49-1.443 9.104-10.045 10.661-20.171l-.129-.02c.635-4.31-.784-8.25-3.575-11.597m-7.897 31.984h-.017.017m-.027.002h-.008.008m-.176.011h-.002.002m-.017 0h-.003.003m-.02.001h-.003.003m-.018 0l-.007.001h.007m-.025 0h-.01.008m-.017 0l-.011.001h.011m-.02 0h-.012.012M59 61H59.037 59"/>
        <path fill="#FBBB2F" d="M59.32 5c-.646 0-1.305.1-1.974.29-2.414.685-4.978 2.543-7.739 5.122a77.617 77.617 0 0 0-3.021 3.002c-1.158 1.206-2.24 2.558-3.302 4.041-.095.133-.19.268-.284.403C53.182 18.846 62.834 22.98 68 29c-.017-8.815-2.24-18.242-5.692-23.22A6.129 6.129 0 0 0 59.32 5"/>
        <path fill="#FBED1E" d="M43.111 18v.001c-2.613 3.723-5.112 8.231-8.276 13.268 1.77.76 3.681 1.42 5.737 1.96C53.948 36.734 60.484 43.156 62.941 49a30.596 30.596 0 0 0 1.99-3.866c.974-2.275 1.726-4.756 2.283-7.478a35.893 35.893 0 0 0 .442-2.702l.003-.018c.235-1.876.345-3.842.34-5.84C62.858 23.102 53.249 18.985 43.112 18m-17.77 26.673"/>
        <path fill="#D7258D" d="M21.494 1C14.846 1 2 14.119 2 31.579V31.989c.015 5.292.317 11.243 1.206 16.116-.824-8.407 5.635-21.503 19.538-27.69C16.12 12.003 16.297 2.478 21.494 1M25 44.692c-2.508 2.291-5.022 6.255-7.99 9.262 2.968-3.006 5.483-6.97 7.99-9.262m-8.005 9.278v.001M9.85 57.971h-.002.001m-.02.002h-.003.002m-.085.006H9.74h.003m-.02.002h-.006.005m-.021.001l-.007.001H9.7m-.024 0l-.005.001h.005m-.06.004H9.61h.007m-.021 0l-.01.001a.11.11 0 0 1 .01 0m-.023 0l-.01.001h.01m-.024 0l-.01.001h.01m-.024 0l-.01.002.01-.001m-.057.002h-.012.012m-.024.001h-.012.012m-.024 0l-.013.001h.013m-.023 0h-.014.014m-.025.001h-.014.014m-.024 0L9.325 58h.023m-.03 0H9.3h.017m-.026 0h-.014.014m-.025 0h-.015.015m-.024 0a.26.26 0 0 1-.016.001h.016m-.024 0h-.024.024"/>
        <path fill="#64C9DB" d="M3.068 48.995c.169.96.359 1.88.573 2.745 1.04 4.193 2.64 7.106 5.048 7.254l.101.005.116.001.097-.001.1-.002.101-.004.124-.007.169-.012c2.67-.245 4.925-1.904 6.96-4.048 2.898-3.057 5.34-7.065 7.774-9.381.382-.363.763-.685 1.146-.955C29.343 39.787 32.401 35.2 35 30.987c-5.781-2.524-10.046-6.138-12.956-9.983C8.54 27.254 2.268 40.495 3.068 48.995z"/>
        <path fill="#EA94BE" d="M63.758 48c-1.877 2.833-4.271 5.3-7.28 7.52l-.478.092c.571 1.393 1.19 2.601 1.953 3.395a.076.076 0 0 0 .009.01l.004.004.015.015h.001c.546.558 1.165.905 1.893.957l.043.003H59.94l.022.002h.024l.017.001h.027l.016.001H60.155l.01-.001H60.206l.012-.001h.022l.002-.001H60.259l.016-.001h.005l.012-.001h.004l.014-.001h.019l.005-.001h.017l.004-.001.013-.002H60.39l.014-.002h.005l.014-.001.009-.001h.011l.019-.002h.002a5.07 5.07 0 0 0 1.088-.215l.021-.006c3.046-1.139 4.73-6.173 2.185-11.763"/>
        <path fill="#AF85BC" d="M34.85 31c-2.662 4.11-5.792 8.583-9.85 13.268a7.4 7.4 0 0 1 .342-.216c.685-.406 1.376-.65 2.082-.679l.06-.002H27.54l.007-.001h.019c6.384 0 6.228 9.329 9.97 9.329 3.587 0 4.064-8.554 10.183-8.554h.08l.024.001h.007l.018.001a.06.06 0 0 1 .007 0h.019l.005.001.024.001h.023l.01.002h.023l.022.002h.01l.013.001.011.001.012.001h.011l.016.002.017.001.01.001a605.01 605.01 0 0 1 .037.003l.006.001.03.003h.003l.017.002h.006l.016.002h.004l.053.007h.003l.018.003c1.265.167 2.265.904 3.096 1.98l.004.003.01.014.012.015a.04.04 0 0 0 .004.005l.013.017a.035.035 0 0 0 .003.004c1.859 2.45 2.87 6.593 4.11 9.781l.46-.093c2.895-2.255 5.204-4.765 7.013-7.642-2.461-5.69-9.007-11.943-22.403-15.357A41.459 41.459 0 0 1 34.85 31"/>
        <path fill="#361943" d="M64.839 55.348c.308-2.27-.054-4.699-1.02-7.083 1.934-3.218 3.306-6.884 4.18-11.12.439-2.12.684-4.428.76-6.812 1.18 1.659 1.966 3.391 2.355 5.172-.32 5.6-1.737 11.307-3.999 15.972-.714 1.475-1.485 2.776-2.276 3.87m-7.676.604c2.292-1.908 4.222-4.015 5.816-6.374.879 2.628.763 4.72.603 5.767a8.063 8.063 0 0 1-.645 2.193c-1.157 1.07-2.303 1.66-3.34 1.66-.904 0-1.716-1.45-2.434-3.246m-9.24-13.303c-4.25 0-6.264 3.4-7.734 5.884-.813 1.372-1.653 2.79-2.397 2.79-.74 0-1.503-1.532-2.241-3.015-1.34-2.691-3.169-6.363-7.531-6.445 2.88-3.629 5.248-7.095 7.341-10.377a41.841 41.841 0 0 0 5.318 1.763c8.492 2.207 15.068 5.877 19.018 10.612 1.255 1.506 2.13 2.962 2.734 4.314-1.535 2.426-3.425 4.578-5.733 6.545-.235-.659-.46-1.33-.672-1.966-1.581-4.737-3.374-10.105-8.103-10.105M19.09 48.833c-3.014 3.842-6.43 8.197-10.57 8.197-1.781 0-3.324-2.76-4.347-7.773-.327-1.601-.576-3.325-.769-5.082 1.252-7.77 7.386-17.434 18.342-22.57.147.182.294.366.447.546 2.344 2.766 6.166 6.227 12.004 8.838-2.253 3.523-4.825 7.255-8.015 11.167-2.56.9-4.773 3.72-7.092 6.677M9.719 10.972c2.488-3.401 5.102-5.674 7.313-6.942-.504 1.161-.768 2.571-.748 4.173.052 3.97 1.734 8.393 4.665 12.373a35.313 35.313 0 0 0-12.759 10.2c-2.33 2.993-4.07 6.256-5.124 9.476-.192-2.978-.25-5.87-.25-8.257 0-10.08 4.325-17.499 6.903-21.023m27.072.499c3.778 0 6.875-2.13 9.869-4.189 2.897-1.993 5.634-3.875 8.85-3.875 1.153 0 2.335.33 3.508.948-4.142.322-8.47 4.232-12.545 8.444-1.198 1.238-2.315 2.631-3.408 4.154-4.509-.4-9.01-.185-13.203.673a39.299 39.299 0 0 0-7.747 2.42c-2.84-3.799-4.533-8.134-4.581-11.86-.029-2.218.537-3.996 1.569-5.1.59-.189 1.123-.283 1.58-.283 3.744 0 6.027 2.167 8.443 4.462 2.178 2.068 4.43 4.206 7.665 4.206m15.652 7.23a49.559 49.559 0 0 0-7.942-1.599c.927-1.254 1.873-2.407 2.873-3.44 3.854-3.985 8.312-8.062 12.151-8.086a5.41 5.41 0 0 1 1.646.25c.596.5 1.182 1.07 1.754 1.71 2.669 4.73 4.37 12.197 4.596 19.431-3.579-3.563-8.821-6.455-15.078-8.267m-17.57 11.226c-5.72-2.527-9.45-5.892-11.725-8.577-.075-.089-.146-.18-.22-.269a37.485 37.485 0 0 1 7.185-2.236c3.907-.799 8.038-1.003 12.117-.697-1.428 2.095-2.837 4.41-4.352 6.9-.958 1.574-1.948 3.202-3.005 4.879m4.074-4.235c1.645-2.704 3.163-5.2 4.71-7.417 9.68 1.01 18.881 4.876 23.89 10.532-.011 2.834-.256 5.593-.771 8.089-.788 3.815-1.958 7.096-3.58 9.995a20.428 20.428 0 0 0-2.538-3.824c-4.118-4.937-10.917-8.748-19.663-11.021a40.698 40.698 0 0 1-4.957-1.628c1.02-1.622 1.98-3.2 2.909-4.726m32.221 6.21a17.414 17.414 0 0 0-2.381-3.568c-.039-5.42-.913-11.084-2.414-15.79 2.705 5.024 4.611 11.774 4.795 19.359M68.37 10.336C64.794 4.152 60.107.604 55.51.604c-4.094 0-7.326 2.223-10.45 4.372-2.762 1.898-5.37 3.692-8.269 3.692-2.107 0-3.782-1.59-5.721-3.431C28.485 2.782 25.555 0 20.684 0c-3.902 0-9.1 3.66-13.242 9.322C4.662 13.122 0 21.121 0 31.995c0 4.97.245 12.094 1.413 17.82.506 2.478 2.044 10.018 7.106 10.018 5.515 0 9.38-4.928 12.79-9.275 2.275-2.9 4.627-5.898 6.562-5.898 2.533 0 3.686 1.937 5.157 4.891 1.119 2.249 2.276 4.575 4.764 4.575 2.353 0 3.609-2.12 4.823-4.17 1.61-2.721 2.85-4.505 5.308-4.505 2.698 0 4.087 4.162 5.431 8.186C54.79 57.937 56.147 62 59.596 62 66.866 62 74 47.686 74 33.103c0-8.4-2-16.486-5.63-22.767"/>
    </g>
</svg>
