<svg xmlns="http://www.w3.org/2000/svg" xmlns:xlink="http://www.w3.org/1999/xlink" width="24" height="22" viewBox="0 0 24 22">
    <defs>
        <path id="a" d="M0 0h24v21.598H0z"/>
    </defs>
    <g fill="none" fill-rule="evenodd">
        <mask id="b" fill="#fff">
            <use xlink:href="#a"/>
        </mask>
        <path fill="#FFF" d="M20.95 20.308h-4.638v-2.934a4.28 4.28 0 0 0-1.263-3.048A4.285 4.285 0 0 0 12 13.064a4.316 4.316 0 0 0-4.311 4.31v2.933H3.05V9.377L9.037 4.11 12 1.502l5.428 4.775 3.521 3.1v10.93zm3.049-9.686c0-.03-.005-.06-.01-.09-.001-.012-.002-.025-.005-.037a.657.657 0 0 0-.027-.086c-.004-.01-.007-.022-.012-.032a.618.618 0 0 0-.044-.08c-.005-.01-.01-.02-.016-.028a.705.705 0 0 0-.056-.068l-.027-.029-.02-.021-1.758-1.546c0-.002-.002-.003-.003-.004l-3.656-3.216L12.427.159l-.02-.014a.679.679 0 0 0-.055-.04L12.342.1l-.013-.01-.03-.015a.602.602 0 0 0-.054-.025c-.009-.003-.017-.008-.025-.01a.979.979 0 0 0-.037-.013l-.051-.012-.028-.006a.746.746 0 0 0-.165-.005.758.758 0 0 0-.043.005l-.028.006a.56.56 0 0 0-.087.023l-.027.012a.585.585 0 0 0-.054.025l-.028.014c-.009.005-.016.013-.025.018a.642.642 0 0 0-.054.04c-.006.004-.013.007-.02.013L8.022 3.284 1.98 8.6l-.006.006L.22 10.15l-.019.02-.032.035a.667.667 0 0 0-.05.06c-.009.013-.016.026-.023.039a.617.617 0 0 0-.039.07l-.016.044c-.008.024-.017.048-.023.074l-.007.048a.58.58 0 0 0-.008.078L0 10.635c0 .012.003.023.004.035a.656.656 0 0 0 .02.131.54.54 0 0 0 .047.122.61.61 0 0 0 .071.112c.007.008.011.018.018.026l.012.01a.645.645 0 0 0 .074.068c.009.007.016.015.025.021a.62.62 0 0 0 .106.061l.007.004a.64.64 0 0 0 .26.056H1.76v9.672c0 .357.29.645.645.645h5.928a.645.645 0 0 0 .645-.645v-3.58a3.024 3.024 0 0 1 5.16-2.134c.57.57.884 1.328.884 2.135v3.58c0 .355.289.644.645.644h5.927a.645.645 0 0 0 .646-.645v-9.672h1.114c.093 0 .18-.02.26-.056l.016-.008a.615.615 0 0 0 .097-.056l.031-.026a.678.678 0 0 0 .068-.062l.013-.012c.01-.01.016-.02.024-.03a.59.59 0 0 0 .115-.236l.012-.048a.675.675 0 0 0 .008-.084c0-.01.003-.018.003-.027l-.001-.014z" mask="url(#b)"/>
    </g>
</svg>
