<svg xmlns="http://www.w3.org/2000/svg" width="24" height="24" viewBox="0 0 24 24">
    <path fill="#FFF" fill-rule="evenodd" d="M10.416 9.985c.045-.456.455-.79.914-.79h2.158c.422 0 .775.299.86.696a.223.223 0 0 0 .214.182h.889a.222.222 0 0 0 .22-.247 2.2 2.2 0 0 0-2.183-1.95h-.33a.11.11 0 0 1-.11-.11v-.549a.22.22 0 0 0-.22-.22h-.878a.22.22 0 0 0-.22.22v.55c0 .06-.05.11-.11.11h-.33A2.2 2.2 0 0 0 9.1 10.222c.078 1.167 1.1 2.047 2.27 2.047h2.119a.88.88 0 0 1 .874.967c-.044.456-.455.79-.914.79h-2.157a.88.88 0 0 1-.86-.696.222.222 0 0 0-.215-.182h-.889a.222.222 0 0 0-.22.246 2.2 2.2 0 0 0 2.184 1.95h.329c.06 0 .11.05.11.11v.55c0 .12.098.22.22.22h.878a.22.22 0 0 0 .22-.22v-.55c0-.06.05-.11.11-.11h.33a2.199 2.199 0 0 0 2.191-2.347c-.078-1.166-1.1-2.046-2.27-2.046h-2.118a.88.88 0 0 1-.875-.967M24 11.44a11.526 11.526 0 0 1-3.344 8.318 11.524 11.524 0 0 1-8.266 3.465c-5.07 0-9.516-3.249-11.06-8.084a.458.458 0 0 0-.55-.304L0 15.036l1.18-3.16 2.566 2.19-.89.23a.463.463 0 0 0-.32.59A10.376 10.376 0 0 0 12.388 22c2.88 0 5.558-1.155 7.543-3.252a10.301 10.301 0 0 0 2.83-7.718c-.277-5.048-4.274-9.24-9.297-9.752-4.819-.49-9.29 2.343-10.881 6.89-.152.434-.515.479-.781.386-.214-.074-.536-.317-.384-.756C3.186 2.697 8.186-.485 13.584.06 19.436.652 23.914 5.544 24 11.439"/>
</svg>
